#!OML:ASF F:\VICON\USERDATA\INSTALL\Justin_Nancy\Justin_Nancy.ASF
:FULLY-SPECIFIED
:DEGREES
190
root 13.5474 17.6477 -1.43443 1.14071 -6.10361 3.29032
lowerback 8.19985 -0.397873 -3.78259
upperback 0.239877 -0.835612 1.127
thorax -4.28248 -0.32708 3.40062
lowerneck -16.8692 -3.97082 -9.45411
upperneck 23.2426 -4.77557 7.01805
head 10.6612 -2.20656 3.43172
rclavicle 3.45885e-014 1.66979e-014
rhumerus -31.3446 -16.1678 -79.2933
rradius 29.4166
rwrist 10.3403
rhand -12.9861 12.9124
rfingers 7.12502
rthumb 13.1066 -16.6557
lclavicle 3.45885e-014 1.66979e-014
lhumerus -26.575 11.6816 82.0681
lradius 24.092
lwrist -9.5935
lhand -15.4107 24.7826
lfingers 7.12502
lthumb 10.7686 54.4866
rfemur -26.685 -7.71013 19.8714
rtibia 60.9802
rfoot -10.8786 -8.18591
rtoes -3.87322
lfemur -14.8962 -0.0587908 -23.2318
ltibia 25.3507
lfoot -8.79532 2.80691
ltoes 2.69962
191
root 13.5375 17.6307 -1.34369 1.23382 -6.28439 3.3172
lowerback 8.30652 -0.449859 -3.85695
upperback 0.209025 -0.915235 1.1511
thorax -4.36629 -0.362267 3.47947
lowerneck -16.5148 -4.03541 -9.57901
upperneck 22.9758 -4.8918 7.16351
head 10.5139 -2.25933 3.48623
rclavicle -1.55549e-014 -1.98785e-014
rhumerus -31.5082 -16.071 -79.2165
rradius 29.5061
rwrist 10.1445
rhand -12.6788 13.1105
rfingers 7.12502
rthumb 13.4028 -16.4384
lclavicle -1.55549e-014 -1.98785e-014
lhumerus -26.3272 10.8988 82.2234
lradius 24.6045
lwrist -8.85121
lhand -15.6185 26.3051
lfingers 7.12502
lthumb 10.5682 56.0193
rfemur -27.5555 -7.84063 19.9381
rtibia 59.9866
rfoot -11.6957 -7.75141
rtoes -4.90868
lfemur -14.9592 -0.0326913 -23.2616
ltibia 25.8965
lfoot -9.47613 2.77949
ltoes 2.53476
192
root 13.5231 17.6178 -1.25816 1.39621 -6.37077 3.28885
lowerback 8.35431 -0.547863 -3.99032
upperback 0.2463 -1.0542 1.27664
thorax -4.33738 -0.428515 3.70295
lowerneck -16.5059 -4.15785 -9.68849
upperneck 22.7817 -5.02331 7.15492
head 10.458 -2.32917 3.47851
rclavicle -1.51076e-014 8.74653e-015
rhumerus -31.4232 -15.8659 -79.1887
rradius 29.5638
rwrist 9.90339
rhand -12.7497 12.9226
rfingers 7.12502
rthumb 13.3344 -16.6308
lclavicle -1.51076e-014 8.74653e-015
lhumerus -25.8722 10.5117 82.4198
lradius 25.0571
lwrist -8.36157
lhand -15.5794 27.0533
lfingers 7.12502
lthumb 10.6059 56.7656
rfemur -28.4313 -7.92755 20.103
rtibia 58.8314
rfoot -11.2167 -7.84133
rtoes -0.266586
lfemur -15.0837 0.206573 -23.2275
ltibia 26.4422
lfoot -10.2444 2.65652
ltoes 2.10993
193
root 13.5053 17.6051 -1.17168 1.44264 -6.42331 3.29854
lowerback 8.64246 -0.640806 -4.22436
upperback 0.145789 -1.20592 1.44333
thorax -4.58235 -0.488687 4.03665
lowerneck -16.5089 -4.18397 -9.58512
upperneck 22.7627 -4.98545 6.76048
head 10.4352 -2.34839 3.32244
rclavicle -2.24627e-014 1.59028e-014
rhumerus -31.7983 -15.2164 -79.1609
rradius 29.81
rwrist 9.04606
rhand -13.3997 11.9192
rfingers 7.12502
rthumb 12.7079 -17.6741
lclavicle -2.24627e-014 1.59028e-014
lhumerus -25.6696 10.2493 82.5749
lradius 25.3551
lwrist -8.1043
lhand -15.9278 24.8815
lfingers 7.12502
lthumb 10.2698 54.6108
rfemur -29.0908 -8.0952 20.2349
rtibia 57.5105
rfoot -11.0823 -7.82261
rtoes -0.197332
lfemur -15.0658 0.227828 -23.212
ltibia 26.9574
lfoot -10.998 2.82912
ltoes 0.881004
194
root 13.4883 17.5951 -1.08173 1.50673 -6.49468 3.2901
lowerback 8.74854 -0.693856 -4.27558
upperback 0.140376 -1.28239 1.52166
thorax -4.6372 -0.522953 4.16009
lowerneck -16.2761 -3.99352 -9.64575
upperneck 22.5754 -4.66739 6.58491
head 10.2903 -2.23071 3.3137
rclavicle 3.63776e-014 -3.97569e-015
rhumerus -31.9109 -15.1656 -79.0411
rradius 29.7694
rwrist 8.61592
rhand -13.5348 11.6295
rfingers 7.12502
rthumb 12.5777 -17.9719
lclavicle 3.63776e-014 -3.97569e-015
lhumerus -25.151 9.82036 82.7005
lradius 25.3147
lwrist -8.14424
lhand -16.5837 22.9577
lfingers 7.12502
lthumb 9.63703 52.7172
rfemur -29.6603 -8.23549 20.3917
rtibia 56.0311
rfoot -10.9465 -7.94951
rtoes -4.16005
lfemur -14.9424 0.375183 -23.2011
ltibia 27.3083
lfoot -11.6327 3.02243
ltoes -0.90062
195
root 13.4712 17.5874 -0.992379 1.60166 -6.67018 3.18056
lowerback 8.76266 -0.696641 -4.18691
upperback 0.27243 -1.27329 1.58316
thorax -4.50814 -0.525921 4.17131
lowerneck -16.8637 -4.40348 -9.53136
upperneck 22.654 -5.1874 6.44375
head 10.4735 -2.46524 3.16311
rclavicle 2.72335e-014 2.62396e-014
rhumerus -31.7083 -15.6653 -78.8428
rradius 29.5065
rwrist 8.87245
rhand -13.6171 12.2164
rfingers 7.12502
rthumb 12.4983 -17.3899
lclavicle 2.72335e-014 2.62396e-014
lhumerus -24.4238 9.28999 82.8488
lradius 25.258
lwrist -8.16535
lhand -17.3943 21.9861
lfingers 7.12502
lthumb 8.85482 51.7803
rfemur -30.1849 -8.27847 20.6543
rtibia 54.4265
rfoot -10.9619 -8.0992
rtoes -8.31389
lfemur -14.7448 0.429201 -23.0879
ltibia 27.4925
lfoot -12.0802 3.36857
ltoes -2.2266
196
root 13.4536 17.5815 -0.89766 1.5859 -6.94519 3.22704
lowerback 8.9216 -0.68848 -4.30122
upperback 0.257388 -1.27883 1.62083
thorax -4.60943 -0.522687 4.28102
lowerneck -17.3065 -4.47001 -9.38503
upperneck 22.9519 -5.26421 6.32568
head 10.6665 -2.49553 3.08387
rclavicle 8.74653e-015 -3.02153e-014
rhumerus -31.9723 -15.5309 -78.7167
rradius 29.6621
rwrist 8.62344
rhand -13.7137 11.8802
rfingers 7.12502
rthumb 12.4051 -17.7317
lclavicle 8.74653e-015 -3.02153e-014
lhumerus -24.2543 8.73299 82.9135
lradius 25.5946
lwrist -8.21129
lhand -17.1442 22.1759
lfingers 7.12502
lthumb 9.09618 51.9598
rfemur -30.5467 -8.36008 20.7278
rtibia 52.7195
rfoot -11.0639 -8.19736
rtoes -9.85426
lfemur -14.4015 0.383952 -23.1002
ltibia 27.5401
lfoot -12.3837 3.63257
ltoes -1.36624
197
root 13.4346 17.5786 -0.796145 1.58584 -7.19751 3.41625
lowerback 8.86341 -0.713839 -4.57072
upperback 0.214276 -1.33658 1.65644
thorax -4.60933 -0.544166 4.47783
lowerneck -16.7186 -4.43897 -9.6341
upperneck 22.7223 -5.22198 6.41935
head 10.4766 -2.49673 3.16875
rclavicle -1.28216e-014 2.70347e-014
rhumerus -32.3763 -15.0599 -78.6622
rradius 30.1045
rwrist 8.15635
rhand -13.7413 11.1775
rfingers 7.12502
rthumb 12.3786 -18.436
lclavicle -1.28216e-014 2.70347e-014
lhumerus -24.1102 8.75195 82.8406
lradius 26.0513
lwrist -9.53029
lhand -15.145 25.2509
lfingers 7.12502
lthumb 11.0249 54.9414
rfemur -30.826 -8.52375 20.6265
rtibia 50.8881
rfoot -10.9405 -8.30644
rtoes -7.60006
lfemur -14.0247 0.174085 -23.2821
ltibia 27.5571
lfoot -12.7678 4.11744
ltoes -1.64061
198
root 13.4126 17.5814 -0.704468 1.7071 -7.34073 3.53672
lowerback 8.87549 -0.753612 -4.72493
upperback 0.115572 -1.40705 1.65972
thorax -4.70841 -0.570445 4.57978
lowerneck -16.2208 -4.19441 -9.85513
upperneck 22.6425 -4.8964 6.55127
head 10.3317 -2.36037 3.30502
rclavicle -3.37934e-015 2.06736e-014
rhumerus -32.6069 -15.2084 -78.4605
rradius 29.9646
rwrist 8.12967
rhand -13.7462 11.6404
rfingers 7.12502
rthumb 12.3738 -17.9734
lclavicle -3.37934e-015 2.06736e-014
lhumerus -23.8496 7.96673 83.0245
lradius 26.0493
lwrist -8.07554
lhand -16.8903 25.1702
lfingers 7.12502
lthumb 9.34119 54.9433
rfemur -31.2038 -8.71611 20.6171
rtibia 48.9364
rfoot -10.6451 -8.45419
rtoes -6.35036
lfemur -13.7119 0.133637 -23.422
ltibia 27.519
lfoot -13.081 4.55385
ltoes -3.37803
199
root 13.3887 17.5754 -0.619704 1.80364 -7.67029 3.50295
lowerback 9.18889 -0.731242 -4.84279
upperback -0.0613452 -1.40111 1.76657
thorax -5.06642 -0.548233 4.77186
lowerneck -16.2534 -4.43756 -9.67119
upperneck 22.7012 -5.23331 6.32442
head 10.3798 -2.52545 3.14351
rclavicle 1.73937e-014 -5.56597e-015
rhumerus -32.9839 -15.4526 -78.0979
rradius 29.7462
rwrist 8.26188
rhand -14.0126 12.0562
rfingers 7.12502
rthumb 12.1169 -17.573
lclavicle 1.73937e-014 -5.56597e-015
lhumerus -23.6279 7.71787 83.0371
lradius 26.1631
lwrist -8.31995
lhand -16.7134 25.9833
lfingers 7.12502
lthumb 9.51184 55.7486
rfemur -31.5336 -8.64127 20.797
rtibia 46.9081
rfoot -10.4347 -8.73734
rtoes -8.27821
lfemur -13.3852 0.566955 -23.4063
ltibia 27.4339
lfoot -13.3503 4.81223
ltoes -4.95702
200
root 13.3632 17.5703 -0.52601 1.96207 -8.11602 3.51368
lowerback 9.06738 -0.685587 -4.97715
upperback -0.0325894 -1.34539 1.82938
thorax -4.97004 -0.520384 4.90351
lowerneck -16.6447 -4.47846 -9.5816
upperneck 22.8539 -5.27119 6.27346
head 10.5094 -2.53499 3.10225
rclavicle 7.45443e-015 8.74653e-015
rhumerus -33.0412 -15.5752 -77.95
rradius 29.8514
rwrist 8.75563
rhand -14.0169 11.2975
rfingers 7.12502
rthumb 12.1129 -18.3318
lclavicle 7.45443e-015 8.74653e-015
lhumerus -23.0145 7.49413 82.9564
lradius 26.2812
lwrist -8.74921
lhand -15.4434 26.4457
lfingers 7.12502
lthumb 10.7371 56.1513
rfemur -31.8361 -8.3669 20.9323
rtibia 44.8482
rfoot -10.1113 -9.20199
rtoes -9.16594
lfemur -13.0787 0.288954 -23.4064
ltibia 27.2538
lfoot -13.2927 5.67697
ltoes -3.85192
201
root 13.3367 17.5728 -0.429995 2.1103 -8.39045 3.64796
lowerback 8.82088 -0.686878 -5.15022
upperback 0.05196 -1.35267 1.81651
thorax -4.73811 -0.529677 4.98037
lowerneck -16.6455 -4.4822 -9.62919
upperneck 22.8242 -5.29037 6.38169
head 10.505 -2.5352 3.14628
rclavicle 8.74653e-015 2.06736e-014
rhumerus -32.9382 -16.0633 -77.8088
rradius 29.5577
rwrist 8.64221
rhand -14.1412 12.3318
rfingers 7.12502
rthumb 11.9929 -17.3046
lclavicle 8.74653e-015 2.06736e-014
lhumerus -22.443 7.3206 82.8918
lradius 26.3014
lwrist -8.77747
lhand -15.3865 25.4109
lfingers 7.12502
lthumb 10.792 55.1136
rfemur -32.0623 -8.29476 20.9057
rtibia 42.8046
rfoot -9.8718 -9.86853
rtoes -7.60525
lfemur -12.7117 -0.0682849 -23.5344
ltibia 26.9951
lfoot -13.2001 6.32914
ltoes -2.37365
202
root 13.3135 17.5794 -0.335413 2.17181 -8.6579 4.03277
lowerback 8.80317 -0.715983 -5.39817
upperback -0.0535881 -1.42494 1.66955
thorax -4.82839 -0.555653 4.97646
lowerneck -16.3264 -4.38618 -9.78178
upperneck 22.9668 -5.18815 6.51622
head 10.4944 -2.49404 3.2415
rclavicle 3.15074e-014 -1.27222e-014
rhumerus -33.2629 -16.0317 -77.7963
rradius 29.6751
rwrist 8.48149
rhand -13.7837 12.127
rfingers 7.12502
rthumb 12.3377 -17.489
lclavicle 3.15074e-014 -1.27222e-014
lhumerus -22.4145 7.35189 82.6742
lradius 26.5528
lwrist -9.06257
lhand -15.134 25.0551
lfingers 7.12502
lthumb 11.0355 54.7451
rfemur -32.2674 -8.45979 20.6352
rtibia 40.748
rfoot -10.0706 -10.5378
rtoes -4.25021
lfemur -12.2289 0.359705 -23.9461
ltibia 26.6336
lfoot -13.3905 6.37564
ltoes -3.33425
203
root 13.2859 17.5839 -0.233018 2.37644 -8.86777 4.34592
lowerback 8.50229 -0.780435 -5.47907
upperback -0.143342 -1.5141 1.47138
thorax -4.74541 -0.60089 4.81644
lowerneck -16.0492 -4.29214 -9.68394
upperneck 22.9084 -5.12929 6.59441
head 10.4128 -2.45485 3.26406
rclavicle -2.61402e-014 -4.77083e-015
rhumerus -33.6244 -16.0097 -77.8777
rradius 29.9368
rwrist 8.35484
rhand -13.9879 12.097
rfingers 7.12502
rthumb 12.1408 -17.5307
lclavicle -2.61402e-014 -4.77083e-015
lhumerus -22.2899 7.05008 82.42
lradius 26.8748
lwrist -9.10682
lhand -15.1523 25.3208
lfingers 7.12502
lthumb 11.0178 55.0117
rfemur -32.5734 -8.67097 20.4775
rtibia 38.6556
rfoot -9.92284 -11.2219
rtoes -3.34011
lfemur -11.8718 0.901711 -24.2562
ltibia 26.2041
lfoot -13.4673 6.33254
ltoes -3.78114
